# xmcd CD database file
#
# Track frame offsets:
#	150
#	22208
#	41411
#	66720
#	79685
#	95633
#	113099
#	127652
#	138190
#	149840
#
# Disc length: 2196 seconds
#
# Revision: 0
# Processed by: cddbd v1.5.2PL0 Copyright (c) Steve Scherf et al.
# Submitted via: CDex 1.70beta2
#
DISCID=9008920a
DTITLE=Various Artist - Coffee Break Jazz Vocal (Disc1)
DYEAR=1900
DGENRE=Jazz
TTITLE0=Kathy Troccoli - Overjoyed
TTITLE1=Cassandra Wilson - Lover Come Back To Me
TTITLE2=Bob Dorough - Moon River
TTITLE3=Natalie Cole - This Will Be (An Everything Love)
TTITLE4=Holly Cole - Romantically Helpless
TTITLE5=Cacilie Norby -Girl Talk 
TTITLE6=Jackie De Shannon - What The World Needs Now Is Love
TTITLE7=The Four King Cousins - Here,There And Everywhere
TTITLE8=Priscilla Ahn - Love
TTITLE9=Chet Baker - I Fall In Love Too Easily
EXTD=
EXTT0=
EXTT1=
EXTT2=
EXTT3=
EXTT4=
EXTT5=
EXTT6=
EXTT7=
EXTT8=
EXTT9=
PLAYORDER=
